<?xml version="1.0" encoding="utf-8"?>
<!-- Generator: Adobe Illustrator 21.1.0, SVG Export Plug-In . SVG Version: 6.00 Build 0)  -->
<svg version="1.1" id="Layer_1" xmlns="http://www.w3.org/2000/svg" xmlns:xlink="http://www.w3.org/1999/xlink" x="0px" y="0px"
	 viewBox="0 0 618 220" style="enable-background:new 0 0 618 220;" xml:space="preserve">
<style type="text/css">
	.st0{fill:#0071BC;stroke:#0071BC;stroke-miterlimit:10;}
	.st1{font-family:'Ming-Lt-HKSCS-ExtB';}
	.st2{font-size:98.6348px;}
	.st3{fill:#8CC63F;stroke:#8CC63F;stroke-miterlimit:10;}
	.st4{font-size:26.3662px;}
</style>
<text transform="matrix(0.6352 0 0 1 239.75 125.3496)" class="st0 st1 st2">NARSINGOLE</text>
<path class="st0" d="M53.5,105.3c0-48.2,35-88.6,81.8-98.8c-5.9-1-12-1.5-18.3-1.5C58.7,5,11.5,50.6,11.5,106.8
	S58.7,208.5,117,208.5c8.9,0,17.5-1.1,25.8-3.1C92.2,198.1,53.5,156.1,53.5,105.3z"/>
<g>
	<polygon class="st3" points="185.6,28 71.9,57.1 70.6,70 205.9,48.3 	"/>
	<polygon class="st3" points="225.7,82.2 70.2,95 74.4,82.4 214,57 	"/>
	<polygon class="st3" points="229.6,114.6 69,114.6 77.7,103.3 229.6,92 	"/>
	<polygon class="st3" points="222.6,151.2 76,138.2 69.4,125.1 230,125.1 	"/>
	<polygon class="st3" points="212.6,187 82.7,166.9 75.2,150.4 225,162.6 	"/>
</g>
<text transform="matrix(0.842 0 0 1 422.499 157.0283)" class="st3 st1 st4">WELCOME HOME...</text>
</svg>
