<?xml version="1.0" encoding="utf-8"?>
<!-- Generator: Adobe Illustrator 21.1.0, SVG Export Plug-In . SVG Version: 6.00 Build 0)  -->
<svg version="1.1" id="Layer_1" xmlns="http://www.w3.org/2000/svg" xmlns:xlink="http://www.w3.org/1999/xlink" x="0px" y="0px"
	 viewBox="0 0 577 220" style="enable-background:new 0 0 577 220;" xml:space="preserve">
<style type="text/css">
	.st0{fill:#0071BC;stroke:#0071BC;stroke-miterlimit:10;}
	.st1{font-family:'Ming-Lt-HKSCS-ExtB';}
	.st2{font-size:98.6348px;}
	.st3{fill:#8CC63F;stroke:#8CC63F;stroke-miterlimit:10;}
	.st4{font-family:'SegoeUIHistoric';}
	.st5{font-size:34.0154px;}
</style>
<g>
	<text transform="matrix(0.6352 0 0 1 236.75 129.3496)" class="st0 st1 st2">NARSINGOLE</text>
	<path class="st0" d="M50.5,109.3c0-48.2,35-88.6,81.8-98.8c-5.9-1-12-1.5-18.3-1.5C55.7,9,8.5,54.6,8.5,110.8S55.7,212.5,114,212.5
		c8.9,0,17.5-1.1,25.8-3.1C89.2,202.1,50.5,160.1,50.5,109.3z"/>
	<g>
		<polygon class="st3" points="182.6,32 68.9,61.1 67.6,74 202.9,52.3 		"/>
		<polygon class="st3" points="222.7,86.2 67.2,99 71.4,86.4 211,61 		"/>
		<polygon class="st3" points="226.6,118.6 66,118.6 74.7,107.3 226.6,96 		"/>
		<polygon class="st3" points="219.6,155.2 73,142.2 66.4,129.1 227,129.1 		"/>
		<polygon class="st3" points="209.6,191 79.7,170.9 72.2,154.4 222,166.6 		"/>
	</g>
	<text transform="matrix(0.6526 0 0 1 339.499 167.5313)" class="st3 st4 st5">WHERE LIFE BLOOMS...</text>
</g>
</svg>
