<?xml version="1.0" encoding="utf-8"?>
<!-- Generator: Adobe Illustrator 21.1.0, SVG Export Plug-In . SVG Version: 6.00 Build 0)  -->
<svg version="1.1" id="Layer_1" xmlns="http://www.w3.org/2000/svg" xmlns:xlink="http://www.w3.org/1999/xlink" x="0px" y="0px"
	 viewBox="0 0 585 217" style="enable-background:new 0 0 585 217;" xml:space="preserve">
<style type="text/css">
	.st0{fill:#0071BC;stroke:#0071BC;stroke-miterlimit:10;}
	.st1{font-family:'Ming-Lt-HKSCS-ExtB';}
	.st2{font-size:98.6348px;}
	.st3{fill:#8CC63F;stroke:#8CC63F;stroke-miterlimit:10;}
	.st4{font-family:'SegoeUIHistoric';}
	.st5{font-size:39.8595px;}
</style>
<g>
	<text transform="matrix(0.6352 0 0 1 242.75 125.3496)" class="st0 st1 st2">NARSINGOLE</text>
	<path class="st0" d="M56.5,105.3c0-48.2,35-88.6,81.8-98.8c-5.9-1-12-1.5-18.3-1.5C61.7,5,14.5,50.6,14.5,106.8
		S61.7,208.5,120,208.5c8.9,0,17.5-1.1,25.8-3.1C95.2,198.1,56.5,156.1,56.5,105.3z"/>
	<g>
		<polygon class="st3" points="188.6,28 74.9,57.1 73.6,70 208.9,48.3 		"/>
		<polygon class="st3" points="228.7,82.2 73.2,95 77.4,82.4 217,57 		"/>
		<polygon class="st3" points="232.6,114.6 72,114.6 80.7,103.3 232.6,92 		"/>
		<polygon class="st3" points="225.6,151.2 79,138.2 72.4,125.1 233,125.1 		"/>
		<polygon class="st3" points="215.6,187 85.7,166.9 78.2,150.4 228,162.6 		"/>
	</g>
	<text transform="matrix(0.6551 0 0 1 310.499 172.498)" class="st3 st4 st5">WHERE LIFE BLOOMS...</text>
</g>
</svg>
